# xmcd
#
# Track frame offsets: 
#        150
#        35966
#        60284
#        90693
#        115692
#        140226
#        147620
#        193719
#
# Disc length: 2707 seconds
#
# Revision: 0
# Processed by: cddbd v1.5.2PL0 Copyright (c) Steve Scherf et al.
# Submitted via: ExactAudioCopy v0.90b2
#
DISCID=7a0a9108
DTITLE=Paul Butterfield Blues Band - A&R Studios, Dec 1970 (Disk 1)
DYEAR=1900
DGENRE=Electric Blues
TTITLE0=Everything's Gonna Be Alright
TTITLE1=Stuck in the Countryside
TTITLE2=Drowned in My Own Tears
TTITLE3=Love March
TTITLE4=Get Together Again
TTITLE5=Announcer Encore
TTITLE6=So Far, So Good
TTITLE7=Announcer Outro
EXTD=Recorded live at A&R Studios, New York in Decmber of 1970.  Exact
EXTD=date is unknown.  \nSponsored by Singer Sewing Machines.
EXTT0=
EXTT1=
EXTT2=
EXTT3=
EXTT4=
EXTT5=
EXTT6=
EXTT7=
PLAYORDER=
